<svg width="132" height="31" viewBox="0 0 132 31" fill="none" xmlns="http://www.w3.org/2000/svg">
<path d="M7.8 30L0.44 8.56H3.84L9.92 27.32H8.72L14.44 8.56H17.44L23.16 27.32H21.96L28.08 8.56H31.44L24.08 30H21.08L15.52 11.64H16.36L10.8 30H7.8ZM34.955 30V8.56H37.955V12.08L37.555 11.56C38.0617 10.5467 38.8217 9.74667 39.835 9.16C40.875 8.57333 42.1283 8.28 43.595 8.28H44.955V11.28H43.075C41.5283 11.28 40.2883 11.76 39.355 12.72C38.4217 13.68 37.955 15.04 37.955 16.8V30H34.955ZM89.9519 30.24C88.0319 30.24 86.5519 29.68 85.5119 28.56C84.4719 27.44 83.9519 25.84 83.9519 23.76V11.56H79.9919V8.56H80.9919C81.8985 8.56 82.6185 8.26667 83.1519 7.68C83.6852 7.06667 83.9519 6.30667 83.9519 5.4V3.6H86.9519V8.56H91.6719V11.56H86.9519V23.76C86.9519 24.48 87.0585 25.12 87.2719 25.68C87.4852 26.2133 87.8452 26.64 88.3519 26.96C88.8852 27.28 89.5919 27.44 90.4719 27.44C90.6852 27.44 90.9385 27.4267 91.2319 27.4C91.5252 27.3733 91.7785 27.3467 91.9919 27.32V30C91.6719 30.08 91.3119 30.1333 90.9119 30.16C90.5119 30.2133 90.1919 30.24 89.9519 30.24ZM106.238 30.48C104.238 30.48 102.425 30 100.798 29.04C99.1984 28.0533 97.9318 26.7067 96.9984 25C96.0651 23.2933 95.5984 21.36 95.5984 19.2C95.5984 17.04 96.0518 15.1333 96.9584 13.48C97.8651 11.8 99.0918 10.48 100.638 9.52C102.212 8.56 103.972 8.08 105.918 8.08C107.465 8.08 108.838 8.37333 110.038 8.96C111.265 9.52 112.305 10.2933 113.158 11.28C114.012 12.24 114.665 13.3333 115.118 14.56C115.572 15.76 115.798 17 115.798 18.28C115.798 18.5467 115.785 18.8533 115.758 19.2C115.732 19.52 115.692 19.8533 115.638 20.2H97.5184V17.4H113.918L112.478 18.6C112.718 17.1333 112.545 15.8267 111.958 14.68C111.398 13.5067 110.585 12.5867 109.518 11.92C108.452 11.2267 107.252 10.88 105.918 10.88C104.585 10.88 103.345 11.2267 102.198 11.92C101.078 12.6133 100.198 13.5867 99.5584 14.84C98.9184 16.0667 98.6651 17.5333 98.7984 19.24C98.6651 20.9467 98.9318 22.44 99.5984 23.72C100.292 24.9733 101.225 25.9467 102.398 26.64C103.598 27.3333 104.878 27.68 106.238 27.68C107.812 27.68 109.132 27.3067 110.198 26.56C111.265 25.8133 112.132 24.88 112.798 23.76L115.358 25.12C114.932 26.08 114.278 26.9733 113.398 27.8C112.518 28.6 111.465 29.2533 110.238 29.76C109.038 30.24 107.705 30.48 106.238 30.48ZM121.088 30V8.56H124.088V12.08L123.688 11.56C124.194 10.5467 124.954 9.74667 125.968 9.16C127.008 8.57333 128.261 8.28 129.728 8.28H131.088V11.28H129.208C127.661 11.28 126.421 11.76 125.488 12.72C124.554 13.68 124.088 15.04 124.088 16.8V30H121.088Z" fill="black"/>
<path d="M54.4306 30.48C52.9106 30.48 51.5906 30.2267 50.4706 29.72C49.3506 29.2133 48.484 28.4933 47.8706 27.56C47.2573 26.6 46.9506 25.4933 46.9506 24.24C46.9506 23.04 47.2173 21.9733 47.7506 21.04C48.284 20.08 49.1106 19.28 50.2306 18.64C51.3506 18 52.764 17.5467 54.4706 17.28L61.5906 16.12V20.12L55.4706 21.16C54.4306 21.3467 53.6573 21.68 53.1506 22.16C52.644 22.64 52.3906 23.2667 52.3906 24.04C52.3906 24.7867 52.6706 25.3867 53.2306 25.84C53.8173 26.2667 54.5373 26.48 55.3906 26.48C56.484 26.48 57.444 26.2533 58.2706 25.8C59.124 25.32 59.7773 24.6667 60.2306 23.84C60.7106 23.0133 60.9506 22.1067 60.9506 21.12V15.52C60.9506 14.5867 60.5773 13.8133 59.8306 13.2C59.1106 12.56 58.1506 12.24 56.9506 12.24C55.8306 12.24 54.8306 12.5467 53.9506 13.16C53.0973 13.7467 52.4706 14.5333 52.0706 15.52L47.7906 13.44C48.2173 12.2933 48.884 11.3067 49.7906 10.48C50.724 9.62667 51.8173 8.96 53.0706 8.48C54.324 8 55.684 7.76 57.1506 7.76C58.9373 7.76 60.5106 8.09333 61.8706 8.76C63.2306 9.4 64.284 10.3067 65.0306 11.48C65.804 12.6267 66.1906 13.9733 66.1906 15.52V30H61.2306V26.28L62.3506 26.2C61.7906 27.1333 61.124 27.92 60.3506 28.56C59.5773 29.1733 58.6973 29.6533 57.7106 30C56.724 30.32 55.6306 30.48 54.4306 30.48ZM71.0338 30V8.24H76.2738V30H71.0338ZM71.0338 5.8V0.199997H76.2738V5.8H71.0338Z" fill="#5085E8"/>
</svg>
